<?xml version="1.0" standalone="no"?>
<!DOCTYPE svg PUBLIC "-//W3C//DTD SVG 20010904//EN"
 "http://www.w3.org/TR/2001/REC-SVG-20010904/DTD/svg10.dtd">
<svg version="1.0" xmlns="http://www.w3.org/2000/svg"
 width="1600.000000pt" height="1132.000000pt" viewBox="0 0 1600.000000 1132.000000"
 preserveAspectRatio="xMidYMid meet">

<g transform="translate(0.000000,1132.000000) scale(0.100000,-0.100000)"
fill="#000000" stroke="none">
<path d="M4120 8610 l0 -2710 -340 0 -340 0 0 -725 0 -725 2173 0 2173 0 22
20 c27 26 28 64 2 90 -20 20 -33 20 -2130 20 l-2110 0 0 595 0 595 1409 0
1409 0 16 -62 c10 -35 48 -182 85 -328 l68 -265 1484 -3 1484 -2 85 330 85
330 1378 0 1377 0 0 -595 0 -595 -2134 0 -2135 0 -20 -26 c-26 -33 -26 -45 0
-78 l20 -26 2200 0 2199 0 0 725 0 725 -350 0 -350 0 0 2710 0 2710 -2383 0
c-2644 0 -2427 6 -2427 -65 0 -71 -210 -65 2362 -65 l2318 0 0 -2645 0 -2645
-3750 0 -3750 0 0 2645 0 2645 1193 0 c1174 0 1194 0 1212 20 9 10 18 31 18
45 0 14 -9 35 -18 45 -18 20 -38 20 -1277 20 l-1258 0 0 -2710z m5435 -2862
c-3 -13 -34 -131 -68 -263 l-62 -240 -1382 -3 c-1309 -2 -1382 -1 -1387 15 -3
10 -28 108 -56 218 -28 110 -58 221 -65 248 l-14 47 1520 0 1519 0 -5 -22z"/>
<path d="M4637 10843 c-4 -3 -7 -1041 -7 -2305 l0 -2298 3355 0 3355 0 0 1284
0 1285 -22 15 c-32 22 -55 20 -83 -9 l-25 -24 0 -376 0 -375 -3225 0 -3225 0
2 1053 3 1052 3195 2 c1757 2 3200 3 3207 3 6 0 19 7 27 16 15 14 16 -29 16
-469 0 -453 1 -486 18 -507 22 -27 65 -29 92 -5 20 18 20 35 20 842 l0 823
-3348 0 c-1842 0 -3352 -3 -3355 -7z m6573 -365 c0 -134 -4 -238 -8 -231 -4 6
-20 17 -35 22 -20 8 -990 11 -3218 11 l-3189 0 0 213 c0 118 3 217 7 220 3 4
1455 7 3225 7 l3218 0 0 -242z m-4410 -3338 l0 -770 -1017 2 -1018 3 -3 768
-2 767 1020 0 1020 0 0 -770z m2250 0 l0 -770 -1055 0 -1055 0 0 770 0 770
1055 0 1055 0 0 -770z m2160 0 l0 -770 -1015 0 -1015 0 0 770 0 770 1015 0
1015 0 0 -770z"/>
<path d="M5130 7430 c-11 -11 -20 -31 -20 -45 0 -14 9 -34 20 -45 20 -20 33
-20 678 -20 731 0 702 -3 702 64 0 70 37 66 -698 66 -649 0 -662 0 -682 -20z"/>
<path d="M5370 6890 c-25 -25 -26 -72 -2 -93 17 -15 62 -17 443 -17 457 0 452
-1 464 52 5 21 1 33 -19 52 l-25 26 -421 0 c-407 0 -421 -1 -440 -20z"/>
<path d="M7287 7469 c-39 -23 -41 -86 -3 -111 6 -4 309 -8 674 -8 649 0 662 0
682 20 27 27 25 56 -5 85 l-24 25 -653 0 c-438 -1 -659 -4 -671 -11z"/>
<path d="M7530 6928 c-21 -8 -40 -38 -40 -63 0 -9 11 -27 25 -40 l24 -25 414
0 c404 0 415 1 441 21 31 24 35 68 8 92 -16 14 -67 17 -435 19 -230 2 -427 0
-437 -4z"/>
<path d="M9550 7460 c-24 -24 -26 -57 -4 -88 l15 -22 668 0 c634 0 669 1 684
18 23 25 21 68 -3 92 -20 20 -33 20 -680 20 -647 0 -660 0 -680 -20z"/>
<path d="M9785 6914 c-10 -11 -15 -29 -13 -53 5 -61 5 -61 464 -61 385 0 413
1 435 18 14 12 22 30 22 50 0 64 19 62 -459 62 -386 0 -434 -2 -449 -16z"/>
<path d="M7022 9588 c-317 -343 -412 -451 -403 -462 5 -6 102 -137 216 -291
369 -497 343 -465 380 -465 37 0 65 26 65 61 0 17 -75 126 -231 335 -126 170
-239 321 -250 336 l-19 26 250 274 c217 237 250 277 250 305 0 35 -29 63 -66
63 -16 0 -71 -53 -192 -182z"/>
<path d="M8277 9755 c-14 -14 -52 -85 -312 -590 -51 -99 -155 -299 -230 -445
-89 -171 -137 -275 -137 -295 1 -37 27 -57 72 -53 34 3 36 6 115 158 44 85
132 256 196 380 297 574 399 778 399 798 0 49 -70 81 -103 47z"/>
<path d="M8773 9755 c-16 -11 -23 -26 -23 -48 0 -28 32 -67 238 -291 130 -142
242 -266 249 -275 10 -13 -27 -68 -238 -350 -179 -241 -249 -342 -249 -361 0
-35 29 -60 68 -60 35 0 0 -43 437 545 81 110 152 205 157 211 8 11 -120 156
-448 509 -126 136 -149 150 -191 120z"/>
<path d="M14530 2070 l0 -1230 180 0 180 0 0 318 0 317 58 63 57 63 271 -378
271 -378 222 -3 c142 -1 222 1 219 7 -1 6 -167 229 -366 497 l-364 486 29 32
c128 137 528 563 577 614 l60 62 -229 0 -230 0 -77 -93 c-42 -50 -127 -150
-188 -222 -61 -71 -155 -182 -208 -246 l-97 -117 -3 719 -2 719 -180 0 -180 0
0 -1230z m290 405 l0 -755 29 0 c24 0 38 12 85 75 54 71 127 159 429 513 l139
162 124 0 c102 0 124 -2 117 -13 -4 -8 -134 -148 -288 -311 -154 -164 -280
-303 -280 -310 0 -6 151 -213 335 -459 184 -246 337 -452 338 -457 2 -6 -46
-10 -127 -10 l-131 0 -53 72 c-59 80 -317 438 -443 615 -43 61 -82 111 -86
110 -4 -1 -48 -47 -97 -102 l-90 -100 -1 -297 0 -298 -110 0 -110 0 0 1160 0
1160 110 0 110 0 0 -755z"/>
<path d="M8115 3199 c-298 -44 -523 -229 -589 -485 -20 -77 -21 -231 -1 -304
38 -143 134 -268 279 -364 101 -67 150 -92 300 -150 233 -91 350 -173 397
-278 34 -75 34 -211 1 -283 -46 -99 -129 -162 -257 -195 -178 -46 -413 -6
-626 106 -38 20 -71 35 -73 33 -1 -2 -23 -71 -48 -154 l-45 -150 33 -23 c78
-53 268 -112 424 -131 327 -41 609 33 793 208 64 61 86 91 123 165 118 239 89
532 -72 714 -97 111 -222 186 -497 302 -295 124 -379 208 -380 380 -1 92 28
156 98 218 73 64 153 87 300 86 139 -1 244 -24 362 -80 41 -20 76 -34 78 -32
5 6 95 286 95 298 0 16 -113 65 -206 89 -153 39 -346 51 -489 30z m351 -74
c86 -14 210 -47 245 -66 15 -7 14 -17 -10 -94 -20 -66 -29 -85 -41 -81 -223
79 -342 97 -487 78 -260 -35 -416 -236 -359 -462 40 -154 156 -253 424 -360
348 -137 495 -257 564 -458 19 -56 23 -87 22 -187 0 -103 -4 -130 -26 -193
-70 -195 -228 -330 -463 -393 -120 -33 -379 -33 -523 -1 -117 26 -261 78 -268
96 -3 7 7 49 21 94 l26 82 47 -24 c85 -43 236 -85 350 -98 309 -34 539 83 598
304 27 103 11 235 -39 321 -32 54 -114 130 -191 176 -32 19 -126 62 -209 96
-249 101 -339 155 -436 261 -91 99 -131 208 -130 349 1 161 52 278 171 391 97
91 195 136 393 177 48 11 238 6 321 -8z"/>
<path d="M747 2333 c-3 -729 -6 -857 -19 -913 -35 -141 -89 -220 -181 -261
-46 -21 -66 -24 -187 -24 -115 0 -145 4 -199 23 -35 13 -65 21 -67 19 -5 -4
-54 -271 -54 -291 0 -32 207 -76 359 -76 354 0 590 172 670 486 37 147 41 237
41 1072 l0 812 -179 0 -180 0 -4 -847z m290 -55 c-3 -711 -6 -843 -20 -903
-59 -265 -181 -405 -407 -471 -113 -32 -418 -23 -479 15 -11 7 -11 21 -1 82 7
41 14 77 16 80 2 3 34 -1 71 -8 97 -21 270 -13 344 16 82 31 142 88 184 174
69 142 68 121 72 1030 l4 817 110 0 110 0 -4 -832z"/>
<path d="M9475 2975 c-66 -18 -139 -38 -162 -44 l-43 -12 0 -189 0 -190 -125
0 -126 0 3 -147 3 -148 122 -3 121 -3 5 -507 c4 -555 7 -583 65 -698 57 -113
164 -190 297 -215 105 -20 364 6 398 40 8 8 -7 278 -15 286 -2 2 -32 -3 -68
-11 -92 -19 -167 -17 -218 6 -36 16 -47 29 -70 77 l-27 58 -3 482 -3 483 213
2 213 3 3 148 3 147 -216 0 -215 0 0 235 c0 217 -1 235 -17 234 -10 0 -72 -15
-138 -34z m85 -280 l0 -225 213 -2 212 -3 0 -75 0 -75 -212 -3 -213 -2 0 -478
c0 -272 4 -505 10 -542 15 -97 55 -168 114 -205 48 -29 54 -30 163 -30 l113 1
0 -51 c0 -27 3 -60 6 -71 5 -17 -1 -24 -28 -33 -49 -18 -234 -26 -295 -13
-157 34 -250 133 -283 301 -17 86 -20 186 -20 654 l0 467 -125 0 -125 0 0 80
0 80 125 0 125 0 0 198 0 197 93 27 c142 40 127 63 127 -197z"/>
<path d="M3695 2550 c-49 -10 -116 -29 -150 -41 -66 -24 -181 -84 -190 -99 -4
-7 67 -236 80 -257 1 -2 41 18 91 42 163 83 354 110 489 71 84 -25 154 -96
178 -182 23 -81 23 -134 0 -134 -10 0 -70 -5 -133 -10 -325 -29 -522 -101
-666 -244 -119 -119 -160 -231 -152 -415 4 -96 8 -114 41 -184 68 -146 206
-250 370 -278 86 -14 229 -7 307 17 79 23 184 80 240 131 l48 43 6 -68 c12
-112 -6 -102 187 -102 158 0 170 1 165 18 -20 69 -29 238 -36 697 -8 576 -8
571 -78 714 -64 131 -174 223 -327 271 -102 33 -342 38 -470 10z m400 -65
c155 -33 275 -123 339 -257 60 -126 65 -176 70 -718 3 -267 8 -511 12 -543 l6
-57 -95 0 -95 0 -5 33 c-4 17 -9 65 -13 105 -6 70 -7 72 -34 72 -21 0 -46 -18
-101 -73 -122 -121 -267 -174 -442 -164 -263 15 -429 182 -428 432 0 144 47
252 151 348 138 128 356 194 699 213 l123 7 -4 96 c-8 171 -72 278 -201 337
-55 25 -76 29 -182 32 -137 4 -247 -16 -358 -66 l-64 -29 -21 64 -20 63 46 24
c65 32 170 66 255 81 98 18 277 18 362 0z"/>
<path d="M3965 1726 c-206 -33 -342 -111 -402 -235 -24 -49 -28 -68 -28 -146
0 -107 22 -166 88 -233 138 -141 442 -97 577 82 78 104 84 127 88 349 l4 197
-124 -1 c-67 -1 -159 -7 -203 -13z m253 -208 c-3 -141 -5 -157 -30 -210 -34
-73 -98 -137 -174 -174 -53 -26 -69 -29 -159 -29 -75 0 -108 4 -131 17 -45 25
-92 76 -106 117 -16 47 -16 156 1 205 46 134 247 222 514 225 l88 1 -3 -152z"/>
<path d="M5653 2550 c-39 -10 -91 -28 -115 -41 -62 -31 -161 -103 -191 -139
-14 -16 -28 -30 -31 -30 -3 0 -6 31 -6 69 0 38 -3 83 -6 100 l-6 31 -165 0
-165 0 6 -47 c3 -27 9 -409 12 -850 l6 -803 179 0 179 0 0 525 c0 350 4 542
11 577 44 206 236 343 436 310 157 -26 247 -139 273 -344 6 -47 10 -294 10
-575 l0 -493 181 0 180 0 -4 593 c-4 665 -3 657 -79 816 -72 151 -208 262
-374 305 -85 22 -239 20 -331 -4z m299 -61 c189 -40 325 -177 390 -391 21 -71
22 -88 26 -630 l3 -558 -110 0 -111 0 0 433 c-1 593 -5 646 -66 773 -93 197
-328 269 -544 166 -117 -56 -225 -200 -250 -332 -6 -31 -10 -262 -10 -547 l0
-494 -112 3 -113 3 -3 778 -2 777 95 0 95 0 0 -43 c0 -24 3 -85 6 -135 l7 -92
31 0 c26 0 35 6 51 37 53 101 213 216 341 247 73 18 205 20 276 5z"/>
<path d="M10935 2551 c-28 -10 -70 -28 -94 -41 -44 -22 -153 -123 -184 -170
l-16 -25 -1 45 c0 25 -3 75 -7 113 l-6 67 -165 0 -164 0 7 -27 c4 -16 9 -398
12 -851 l5 -822 179 0 179 0 0 480 c0 524 4 577 58 690 33 70 103 145 167 178
46 25 60 27 168 27 l117 0 -2 175 -3 175 -100 2 c-75 1 -113 -3 -150 -16z
m185 -155 l0 -104 -88 -4 c-74 -2 -97 -8 -153 -35 -86 -42 -159 -120 -205
-217 -58 -122 -63 -176 -64 -678 l0 -448 -110 0 -110 0 0 643 c0 354 -3 705
-7 780 l-6 137 90 0 c74 0 92 -3 97 -16 3 -9 6 -81 6 -160 l0 -144 38 0 c36 1
38 2 74 78 80 170 220 269 381 271 l57 1 0 -104z"/>
<path d="M11734 2550 c-149 -32 -344 -117 -344 -149 0 -9 80 -243 85 -249 1
-1 40 18 86 42 151 80 359 111 490 73 110 -32 182 -127 195 -256 l7 -59 -89
-7 c-351 -26 -563 -94 -710 -228 -136 -124 -195 -287 -172 -477 25 -212 193
-384 411 -421 86 -14 229 -7 307 17 79 23 184 81 238 130 l47 42 10 -81 10
-82 173 -3 c162 -2 173 -1 168 15 -21 69 -28 207 -32 638 -2 265 -9 513 -15
553 -37 254 -171 421 -394 492 -102 33 -342 38 -471 10z m465 -83 c187 -66
299 -210 330 -427 6 -41 13 -291 16 -555 3 -264 8 -501 11 -527 l6 -48 -95 0
-94 0 -6 28 c-3 16 -9 63 -13 105 -7 77 -7 77 -36 77 -23 0 -41 -13 -85 -60
-64 -69 -139 -117 -239 -151 -100 -35 -270 -35 -366 0 -177 64 -282 216 -280
405 1 144 49 254 152 349 138 128 355 194 699 213 l124 7 -5 96 c-9 171 -73
279 -200 337 -56 25 -77 29 -183 32 -137 4 -247 -16 -358 -66 l-64 -29 -18 51
c-10 28 -20 56 -22 63 -6 14 68 52 160 83 118 39 202 50 352 46 121 -2 150 -6
214 -29z"/>
<path d="M12005 1726 c-206 -33 -342 -111 -402 -235 -25 -49 -28 -67 -28 -151
0 -80 4 -103 24 -144 55 -111 151 -166 292 -166 194 0 364 121 419 298 17 53
20 93 20 238 l0 174 -122 -1 c-68 -1 -159 -7 -203 -13z m253 -208 c-3 -144 -5
-156 -31 -210 -57 -116 -166 -193 -289 -205 -135 -12 -226 26 -270 115 -32 64
-32 188 -1 248 67 127 248 199 506 203 l89 1 -4 -152z"/>
<path d="M13660 2564 c-320 -61 -529 -207 -655 -459 -75 -150 -89 -219 -89
-435 0 -174 2 -191 28 -275 72 -237 204 -399 402 -496 157 -76 354 -104 563
-80 164 20 360 84 348 115 -3 7 -17 68 -32 137 -15 68 -29 127 -32 131 -2 5
-22 -1 -43 -12 -21 -11 -78 -31 -127 -46 -118 -34 -285 -37 -384 -5 -177 56
-300 194 -345 387 -24 104 -15 295 19 391 49 137 131 234 248 294 153 77 401
74 560 -7 28 -14 54 -23 57 -19 4 3 25 69 48 146 l41 140 -40 20 c-22 12 -83
32 -136 46 -79 21 -124 26 -251 28 -85 2 -166 1 -180 -1z m320 -74 c77 -12
200 -48 200 -58 0 -4 -10 -40 -22 -80 -17 -58 -24 -72 -37 -67 -143 55 -368
68 -496 27 -205 -64 -355 -233 -401 -452 -25 -118 -15 -312 20 -415 69 -201
225 -344 421 -386 119 -25 335 -7 440 37 41 17 37 21 59 -74 l15 -64 -36 -15
c-146 -61 -462 -79 -621 -35 -284 77 -474 288 -528 582 -16 90 -18 264 -3 346
62 350 307 595 656 654 70 11 258 11 333 0z"/>
<path d="M1500 2017 c0 -635 9 -732 85 -892 98 -206 278 -315 519 -315 162 1
321 62 439 170 77 71 75 72 79 -60 l3 -75 169 -3 168 -2 -7 27 c-4 16 -9 398
-12 851 l-5 822 -178 0 -179 0 -3 -557 -3 -558 -31 -65 c-60 -126 -162 -206
-289 -229 -170 -31 -296 46 -353 216 l-27 78 -3 558 -3 557 -185 0 -184 0 0
-523z m303 -74 c3 -467 6 -535 21 -588 42 -142 118 -236 225 -276 47 -17 72
-20 161 -17 93 3 113 7 173 35 134 63 233 196 256 343 7 38 11 263 11 548 l0
482 110 0 110 0 0 -667 c0 -368 3 -719 7 -780 l6 -113 -96 0 -95 0 -6 93 c-4
50 -7 110 -9 132 -2 37 -4 40 -33 43 -28 3 -35 -2 -64 -48 -71 -110 -207 -203
-346 -236 -92 -21 -235 -14 -322 16 -162 57 -267 191 -319 410 -13 53 -17 163
-20 608 l-5 542 116 0 115 0 4 -527z"/>
</g>
</svg>
